<?xml version="1.0" encoding="UTF-8"?>
<!DOCTYPE svg PUBLIC "-//W3C//DTD SVG 1.1//EN" "http://www.w3.org/Graphics/SVG/1.1/DTD/svg11.dtd">
<!-- Creator: CorelDRAW -->
<svg xmlns="http://www.w3.org/2000/svg" xml:space="preserve" width="215.9mm" height="279.4mm" style="shape-rendering:geometricPrecision; text-rendering:geometricPrecision; image-rendering:optimizeQuality; fill-rule:evenodd; clip-rule:evenodd"
viewBox="0 0 215.9 279.4"
 xmlns:xlink="http://www.w3.org/1999/xlink">
 <defs>
  <style type="text/css">
   <![CDATA[
    .str1 {stroke:#4997D0;stroke-width:0.0762}
    .str2 {stroke:black;stroke-width:0.1}
    .str0 {stroke:#373435;stroke-width:0.2}
    .fil0 {fill:black}
    .fil1 {fill:#4997D0}
    .fil2 {fill:white}
   ]]>
  </style>
 </defs>
 <g id="Capa_x0020_1">
  <metadata id="CorelCorpID_0Corel-Layer"/>
  <rect class="fil0 str0" x="-2.7231" y="93.9728" width="223.334" height="100.07"/>
  <polygon class="fil1" points="12.5397,106.061 4.9554,106.061 4.9554,113.656 4.9554,121.241 4.9554,128.826 4.9554,136.419 12.5397,136.419 20.1401,136.419 27.7244,136.419 27.7244,128.826 20.1401,128.826 12.5397,128.826 12.5397,121.241 12.5397,113.656 20.1401,113.656 27.7244,113.656 27.7244,106.061 20.1401,106.061 "/>
  <path class="fil1 str1" d="M42.8929 106.061l-7.5843 0 0 7.5949 0 7.5853 0 7.5848 0 7.5935 7.5843 0.0001 0 -7.5935 7.6007 -0.0001 0 -7.5745 7.5843 0 0 -7.5956 0 0 0 -7.5949 -7.5843 0 -7.6007 0zm7.6004 7.5949l0 7.5755 -7.6006 0 0 -7.5755 7.6006 0 0 0z"/>
  <rect class="fil1" x="50.4934" y="128.826" width="7.5843" height="7.5935"/>
  <polygon class="fil2 str2" points="80.8471,113.656 80.8471,121.231 73.2629,121.231 73.2629,113.647 73.2467,113.647 73.2467,106.061 65.6624,106.061 65.6624,113.647 65.6624,113.656 65.6624,121.231 65.6624,128.826 73.2467,128.826 73.2629,128.826 80.8471,128.826 80.8471,136.419 88.4314,136.419 88.4314,128.826 88.4314,121.241 88.4314,113.656 88.4314,106.061 80.8471,106.061 "/>
  <path class="fil2 str2" d="M103.599 106.061l-7.5832 0 0 7.5949 0 7.5853 0 7.5848 0 7.5935 7.5832 0.0001 0 -7.5935 7.602 -0.0001 7.5843 0 0 -7.5946 0 -7.5755 0 -0.0087 0 -7.5862 -7.5843 0 -7.602 0zm7.602 15.1704l-7.602 0 0 -7.5755 7.602 0 0 7.5755z"/>
  <polygon class="fil2 str2" points="133.957,106.061 126.371,106.061 126.371,113.656 133.957,113.656 133.969,113.656 133.969,121.241 133.969,128.826 133.969,136.419 141.554,136.419 141.554,128.826 141.554,121.241 141.554,113.656 149.14,113.656 149.14,106.061 141.554,106.061 "/>
  <path class="fil2 str2" d="M104.198 144.005l-7.5843 0 0 7.5808 0 7.5843 0 7.5972 0 7.592 7.5843 0 0 -7.592 7.6009 0.0001 0 7.592 7.5846 -0.0001 0 -7.592 0 -7.5975 0 -7.584 0 -7.5808 -7.5846 0 -7.6009 0 0 0zm7.6009 15.1654l-7.6009 0 0 -7.5843 7.6009 0 0 7.5843z"/>
  <path class="fil2 str2" d="M73.8455 144.005l-7.5848 0 0 7.5808 0 7.5843 0 7.5972 0 7.592 7.5848 0 0 -7.592 7.5983 0.0001 7.5853 0 0 -7.5975 0 -7.584 0 -0.0101 0 -7.5708 -7.5853 0 -7.5983 0zm7.5983 15.1654l-7.5983 0 0 -7.5843 7.5983 0 0 7.5843z"/>
  <polygon class="fil1" points="164.906,144.005 157.321,144.005 157.321,151.586 164.906,151.586 164.922,151.586 164.922,159.17 164.922,166.767 164.922,174.359 172.507,174.359 172.507,166.767 172.507,159.17 172.507,151.586 180.091,151.586 180.091,144.005 172.507,144.005 "/>
  <path class="fil2 str2" d="M134.553 144.005l-7.584 0 0 7.5808 0 7.5843 0 7.5972 0 7.592 7.584 0 0 -7.592 7.6002 0.0001 0 -7.5867 7.5843 0 0 -7.584 0 -0.0106 0 -7.5808 -7.5843 0 -7.6002 0 0 -0.0003zm7.6002 7.5917l0 7.5737 -7.6002 0 0 -7.5843 7.6002 0 0 0.0106z"/>
  <rect class="fil2 str2" x="142.153" y="166.767" width="7.5843" height="7.592"/>
  <polygon class="fil1" points="202.859,144.005 202.859,151.586 202.859,159.17 195.275,159.17 195.275,151.576 195.259,151.576 195.259,144.005 187.675,144.005 187.675,151.576 187.675,151.586 187.675,159.17 187.675,166.767 195.259,166.767 195.275,166.767 202.859,166.767 202.859,174.359 210.444,174.359 210.444,166.767 210.444,159.17 210.444,151.586 210.444,144.005 "/>
  <rect class="fil1" x="164.653" y="128.755" width="7.5843" height="7.5946"/>
  <rect class="fil1" x="187.406" y="128.826" width="7.5843" height="7.5935"/>
  <rect class="fil1" x="172.237" y="128.826" width="7.5843" height="7.5935"/>
  <rect class="fil1" x="157.069" y="128.826" width="7.584" height="7.5935"/>
  <rect class="fil1" x="187.406" y="121.21" width="7.5843" height="7.5949"/>
  <rect class="fil1" x="179.822" y="121.21" width="7.5843" height="7.5949"/>
  <rect class="fil1" x="202.561" y="128.826" width="7.5843" height="7.5935"/>
  <rect class="fil1" x="202.561" y="121.21" width="7.5843" height="7.5949"/>
  <rect class="fil1" x="194.976" y="121.21" width="7.5843" height="7.5949"/>
  <rect class="fil1" x="172.237" y="121.21" width="7.5843" height="7.5949"/>
  <rect class="fil1" x="157.069" y="121.21" width="7.584" height="7.5949"/>
  <rect class="fil1" x="172.237" y="113.585" width="7.5843" height="7.5941"/>
  <rect class="fil1" x="157.069" y="113.585" width="7.584" height="7.5941"/>
  <rect class="fil1" x="172.237" y="105.991" width="7.5843" height="7.5946"/>
  <rect class="fil1" x="164.653" y="105.991" width="7.5843" height="7.5946"/>
  <rect class="fil1" x="157.069" y="105.991" width="7.584" height="7.5946"/>
  <rect class="fil1" x="43.5052" y="166.696" width="7.5843" height="7.5925"/>
  <rect class="fil1" x="20.7519" y="166.767" width="7.5853" height="7.592"/>
  <rect class="fil1" x="35.9214" y="166.767" width="7.5838" height="7.592"/>
  <rect class="fil1" x="51.0895" y="166.767" width="7.5843" height="7.592"/>
  <rect class="fil1" x="20.7519" y="159.141" width="7.5853" height="7.5938"/>
  <rect class="fil1" x="28.3372" y="159.141" width="7.5843" height="7.5938"/>
  <rect class="fil1" x="5.5978" y="166.767" width="7.584" height="7.592"/>
  <rect class="fil1" x="5.5978" y="159.141" width="7.584" height="7.5938"/>
  <rect class="fil1" x="13.1815" y="159.141" width="7.5864" height="7.5938"/>
  <rect class="fil1" x="35.9214" y="159.141" width="7.5838" height="7.5938"/>
  <rect class="fil1" x="51.0895" y="159.141" width="7.5843" height="7.5938"/>
  <rect class="fil1" x="35.9214" y="151.525" width="7.5838" height="7.5946"/>
  <rect class="fil1" x="51.0895" y="151.525" width="7.5843" height="7.5946"/>
  <rect class="fil1 str1" x="35.9214" y="143.934" width="7.5838" height="7.5917"/>
  <rect class="fil1" x="43.5052" y="143.934" width="7.5843" height="7.5917"/>
  <rect class="fil1 str1" x="51.0895" y="143.934" width="7.5843" height="7.5917"/>
 </g>
</svg>
